<?xml version="1.0" encoding="UTF-8" standalone="no"?>
<!-- Created with Inkscape (http://www.inkscape.org/) -->

<svg
   xmlns:dc="http://purl.org/dc/elements/1.1/"
   xmlns:cc="http://creativecommons.org/ns#"
   xmlns:rdf="http://www.w3.org/1999/02/22-rdf-syntax-ns#"
   xmlns:svg="http://www.w3.org/2000/svg"
   xmlns="http://www.w3.org/2000/svg"
   xmlns:sodipodi="http://sodipodi.sourceforge.net/DTD/sodipodi-0.dtd"
   xmlns:inkscape="http://www.inkscape.org/namespaces/inkscape"
   width="52.935604"
   height="82.175392"
   id="svg13820"
   version="1.1"
   inkscape:version="0.48.5 r10040"
   sodipodi:docname="New document 24">
  <defs
     id="defs13822" />
  <sodipodi:namedview
     id="base"
     pagecolor="#ffffff"
     bordercolor="#666666"
     borderopacity="1.0"
     inkscape:pageopacity="0.0"
     inkscape:pageshadow="2"
     inkscape:zoom="0.35"
     inkscape:cx="-7.1035314"
     inkscape:cy="292.50946"
     inkscape:document-units="px"
     inkscape:current-layer="layer1"
     showgrid="false"
     fit-margin-top="0"
     fit-margin-left="0"
     fit-margin-right="0"
     fit-margin-bottom="0"
     inkscape:window-width="1366"
     inkscape:window-height="766"
     inkscape:window-x="0"
     inkscape:window-y="0"
     inkscape:window-maximized="0" />
  <metadata
     id="metadata13825">
    <rdf:RDF>
      <cc:Work
         rdf:about="">
        <dc:format>image/svg+xml</dc:format>
        <dc:type
           rdf:resource="http://purl.org/dc/dcmitype/StillImage" />
        <dc:title></dc:title>
      </cc:Work>
    </rdf:RDF>
  </metadata>
  <g
     inkscape:label="Layer 1"
     inkscape:groupmode="layer"
     id="layer1"
     transform="translate(-382.10353,-742.69625)">
    <path
       inkscape:connector-curvature="0"
       id="path1030"
       d="m 382.2244,747.36832 c -0.64344,-3.72324 4.8333,-6.54984 6.78661,-2.93331 2.5528,6.98794 5.45358,13.84931 8.09964,20.81204 1.31257,-2.75969 1.71327,-7.39725 5.73832,-7.30682 3.27559,0.14899 6.52818,0.2002 9.63678,-1.04186 4.75142,1.07715 9.49186,-0.43636 14.27551,0.0501 1.80541,1.09248 3.00564,2.9992 3.69346,4.96401 1.98955,5.43393 2.9106,11.17117 4.19918,16.79562 0.96846,3.14306 -0.4572,6.22592 -1.93725,8.93866 -2.94645,5.34525 -4.58023,11.48265 -8.81684,16.04774 -3.6024,3.81861 -0.6575,9.55662 -2.15356,14.12607 -3.51054,3.90923 -8.12554,8.1298 -13.8563,6.72468 -4.19409,-1.59592 -8.50786,-2.77907 -12.84688,-3.89166 -2.01736,-5.08621 0.54403,-11.2966 -1.99255,-16.47664 -5.21026,-11.94507 -1.40616,-25.60321 -6.06862,-37.66935 -2.03379,-6.24728 -3.80226,-12.64218 -4.7575,-19.13936 z"
       style="fill:none;stroke:#171717;stroke-width:0.125;stroke-linecap:butt;stroke-linejoin:miter;stroke-miterlimit:10" />
    <path
       inkscape:connector-curvature="0"
       id="path1032"
       d="m 382.2244,747.36832 c -0.64344,-3.72324 4.8333,-6.54984 6.78661,-2.93331 2.5528,6.98794 5.45358,13.84931 8.09964,20.81204 1.31257,-2.75969 1.71327,-7.39725 5.73832,-7.30682 3.27559,0.14899 6.52818,0.2002 9.63678,-1.04186 4.75142,1.07715 9.49186,-0.43636 14.27551,0.0501 1.80541,1.09248 3.00564,2.9992 3.69346,4.96401 1.98955,5.43393 2.9106,11.17117 4.19918,16.79562 0.96846,3.14306 -0.4572,6.22592 -1.93725,8.93866 -2.94645,5.34525 -4.58023,11.48265 -8.81684,16.04774 -3.6024,3.81861 -0.6575,9.55662 -2.15356,14.12607 -3.51054,3.90923 -8.12554,8.1298 -13.8563,6.72468 -4.19409,-1.59592 -8.50786,-2.77907 -12.84688,-3.89166 -2.01736,-5.08621 0.54403,-11.2966 -1.99255,-16.47664 -5.21026,-11.94507 -1.40616,-25.60321 -6.06862,-37.66935 -2.03379,-6.24728 -3.80226,-12.64218 -4.7575,-19.13936 z"
       style="fill:#171717;fill-rule:nonzero;stroke:none" />
    <path
       inkscape:connector-curvature="0"
       id="path1038"
       d="m 385.1675,755.20243 c -1.44553,-3.53811 -3.6954,-10.54968 2.2592,-10.8397 1.50726,2.94879 2.3838,6.14797 3.09937,9.37072 -1.769,0.55551 -3.55991,1.03193 -5.35857,1.46898 z"
       style="fill:none;stroke:#ffffff;stroke-width:0.125;stroke-linecap:butt;stroke-linejoin:miter;stroke-miterlimit:10" />
    <path
       inkscape:connector-curvature="0"
       id="path1040"
       d="m 385.1675,755.20243 c -1.44553,-3.53811 -3.6954,-10.54968 2.2592,-10.8397 1.50726,2.94879 2.3838,6.14797 3.09937,9.37072 -1.769,0.55551 -3.55991,1.03193 -5.35857,1.46898 z"
       style="fill:#ffffff;fill-rule:nonzero;stroke:none" />
    <path
       inkscape:connector-curvature="0"
       id="path1054"
       d="m 386.35331,756.2822 c 1.63029,-0.43587 3.27911,-0.78989 4.94649,-1.06205 0.50399,0.78546 1.51199,2.35641 2.016,3.14187 -2.29816,0.9686 -4.57628,1.98451 -6.90795,2.86834 -0.0404,-1.65321 -0.0585,-3.30261 -0.0545,-4.94816 z"
       style="fill:none;stroke:#ffffff;stroke-width:0.125;stroke-linecap:butt;stroke-linejoin:miter;stroke-miterlimit:10" />
    <path
       inkscape:connector-curvature="0"
       id="path1056"
       d="m 386.35331,756.2822 c 1.63029,-0.43587 3.27911,-0.78989 4.94649,-1.06205 0.50399,0.78546 1.51199,2.35641 2.016,3.14187 -2.29816,0.9686 -4.57628,1.98451 -6.90795,2.86834 -0.0404,-1.65321 -0.0585,-3.30261 -0.0545,-4.94816 z"
       style="fill:#ffffff;fill-rule:nonzero;stroke:none" />
    <path
       inkscape:connector-curvature="0"
       id="path1074"
       d="m 410.23082,758.8443 c 1.46378,-0.154 2.93143,-0.29285 4.40294,-0.41657 -1.30144,2.24463 -2.92486,4.63553 -2.25855,7.38188 0.90776,2.55334 2.7528,4.61724 4.18056,6.88986 -2.02905,0.17884 -4.05433,0.3719 -6.07583,0.57915 -0.38908,-4.786 -2.03778,-9.7534 -0.24912,-14.43432 z"
       style="fill:none;stroke:#ffffff;stroke-width:0.125;stroke-linecap:butt;stroke-linejoin:miter;stroke-miterlimit:10" />
    <path
       inkscape:connector-curvature="0"
       id="path1076"
       d="m 410.23082,758.8443 c 1.46378,-0.154 2.93143,-0.29285 4.40294,-0.41657 -1.30144,2.24463 -2.92486,4.63553 -2.25855,7.38188 0.90776,2.55334 2.7528,4.61724 4.18056,6.88986 -2.02905,0.17884 -4.05433,0.3719 -6.07583,0.57915 -0.38908,-4.786 -2.03778,-9.7534 -0.24912,-14.43432 z"
       style="fill:#ffffff;fill-rule:nonzero;stroke:none" />
    <path
       inkscape:connector-curvature="0"
       id="path1078"
       d="m 419.62171,758.35068 c 3.92788,-1.46442 10.16681,-0.18315 9.15043,5.18895 -3.26428,-0.91815 -8.5878,-0.98643 -9.15043,-5.18895 z"
       style="fill:none;stroke:#ffffff;stroke-width:0.125;stroke-linecap:butt;stroke-linejoin:miter;stroke-miterlimit:10" />
    <path
       inkscape:connector-curvature="0"
       id="path1080"
       d="m 419.62171,758.35068 c 3.92788,-1.46442 10.16681,-0.18315 9.15043,5.18895 -3.26428,-0.91815 -8.5878,-0.98643 -9.15043,-5.18895 z"
       style="fill:#ffffff;fill-rule:nonzero;stroke:none" />
    <path
       inkscape:connector-curvature="0"
       id="path1082"
       d="m 400.44987,761.49963 c 0.88602,-3.15148 4.27463,-1.76935 6.50617,-1.34422 1.33836,5.67367 1.84158,11.47589 2.22553,17.28082 -1.91967,0.79097 -3.85117,1.64288 -5.3073,3.17715 -1.59137,-6.2439 -5.39951,-12.49916 -3.4244,-19.11375 z"
       style="fill:none;stroke:#ffffff;stroke-width:0.125;stroke-linecap:butt;stroke-linejoin:miter;stroke-miterlimit:10" />
    <path
       inkscape:connector-curvature="0"
       id="path1084"
       d="m 400.44987,761.49963 c 0.88602,-3.15148 4.27463,-1.76935 6.50617,-1.34422 1.33836,5.67367 1.84158,11.47589 2.22553,17.28082 -1.91967,0.79097 -3.85117,1.64288 -5.3073,3.17715 -1.59137,-6.2439 -5.39951,-12.49916 -3.4244,-19.11375 z"
       style="fill:#ffffff;fill-rule:nonzero;stroke:none" />
    <path
       inkscape:connector-curvature="0"
       id="path1094"
       d="m 388.1179,763.47303 c 1.57651,-1.17788 3.17614,-2.32348 4.78092,-3.46115 1.18207,2.16117 1.92072,4.51693 2.4955,6.90945 -1.75403,0.94015 -3.48323,1.92398 -5.2131,2.90682 -0.69411,-2.12028 -1.3895,-4.23693 -2.06332,-6.35512 z"
       style="fill:none;stroke:#ffffff;stroke-width:0.125;stroke-linecap:butt;stroke-linejoin:miter;stroke-miterlimit:10" />
    <path
       inkscape:connector-curvature="0"
       id="path1096"
       d="m 388.1179,763.47303 c 1.57651,-1.17788 3.17614,-2.32348 4.78092,-3.46115 1.18207,2.16117 1.92072,4.51693 2.4955,6.90945 -1.75403,0.94015 -3.48323,1.92398 -5.2131,2.90682 -0.69411,-2.12028 -1.3895,-4.23693 -2.06332,-6.35512 z"
       style="fill:#ffffff;fill-rule:nonzero;stroke:none" />
    <path
       inkscape:connector-curvature="0"
       id="path1098"
       d="m 415.23355,761.15836 c 0.96954,-0.0978 2.90861,-0.29338 3.87815,-0.39116 -0.0859,1.04915 -0.25779,3.14746 -0.34374,4.19663 -0.96364,-0.0204 -2.89091,-0.0611 -3.85454,-0.0816 0.08,-0.93097 0.24009,-2.79292 0.32013,-3.7239 z"
       style="fill:none;stroke:#ffffff;stroke-width:0.125;stroke-linecap:butt;stroke-linejoin:miter;stroke-miterlimit:10" />
    <path
       inkscape:connector-curvature="0"
       id="path1100"
       d="m 415.23355,761.15836 c 0.96954,-0.0978 2.90861,-0.29338 3.87815,-0.39116 -0.0859,1.04915 -0.25779,3.14746 -0.34374,4.19663 -0.96364,-0.0204 -2.89091,-0.0611 -3.85454,-0.0816 0.08,-0.93097 0.24009,-2.79292 0.32013,-3.7239 z"
       style="fill:#ffffff;fill-rule:nonzero;stroke:none" />
    <path
       inkscape:connector-curvature="0"
       id="path1102"
       d="m 418.73434,767.04601 c 1.20687,-1.14086 2.39892,-2.29625 3.60116,-3.44001 1.61106,0.74113 3.23477,1.46806 4.85795,2.20152 -0.50015,1.75441 -0.96248,3.5223 -1.30168,5.32303 1.94344,0.11525 3.33508,-0.94947 4.36017,-2.47424 -0.0874,3.9144 2.59028,7.25037 2.77265,11.16232 0.63111,3.28875 -1.8343,5.90185 -3.1324,8.67323 -2.67084,5.06775 -3.93909,11.54099 -9.24462,14.65164 -5.12282,0.43322 -10.0668,-2.29173 -12.04913,-7.10108 -2.87043,-3.64131 0.80341,-7.46697 2.52996,-10.65055 1.63695,0.48476 3.27331,0.99954 4.89437,1.56273 2.12059,-2.28562 4.30639,-5.05937 7.53229,-5.65645 1.75005,0.36571 3.4786,0.84027 5.25051,1.14345 -1.50805,-1.19072 -3.09903,-2.26137 -4.69797,-3.30925 -0.26106,-1.68373 -0.47841,-3.36777 -0.7159,-5.04469 -3.84638,-1.48985 -6.8963,-4.3794 -8.98974,-7.88624 1.44583,0.25381 2.88996,0.53534 4.33238,0.84459 z"
       style="fill:none;stroke:#ffffff;stroke-width:0.125;stroke-linecap:butt;stroke-linejoin:miter;stroke-miterlimit:10" />
    <path
       inkscape:connector-curvature="0"
       id="path1104"
       d="m 418.73434,767.04601 c 1.20687,-1.14086 2.39892,-2.29625 3.60116,-3.44001 1.61106,0.74113 3.23477,1.46806 4.85795,2.20152 -0.50015,1.75441 -0.96248,3.5223 -1.30168,5.32303 1.94344,0.11525 3.33508,-0.94947 4.36017,-2.47424 -0.0874,3.9144 2.59028,7.25037 2.77265,11.16232 0.63111,3.28875 -1.8343,5.90185 -3.1324,8.67323 -2.67084,5.06775 -3.93909,11.54099 -9.24462,14.65164 -5.12282,0.43322 -10.0668,-2.29173 -12.04913,-7.10108 -2.87043,-3.64131 0.80341,-7.46697 2.52996,-10.65055 1.63695,0.48476 3.27331,0.99954 4.89437,1.56273 2.12059,-2.28562 4.30639,-5.05937 7.53229,-5.65645 1.75005,0.36571 3.4786,0.84027 5.25051,1.14345 -1.50805,-1.19072 -3.09903,-2.26137 -4.69797,-3.30925 -0.26106,-1.68373 -0.47841,-3.36777 -0.7159,-5.04469 -3.84638,-1.48985 -6.8963,-4.3794 -8.98974,-7.88624 1.44583,0.25381 2.88996,0.53534 4.33238,0.84459 z"
       style="fill:#ffffff;fill-rule:nonzero;stroke:none" />
    <path
       inkscape:connector-curvature="0"
       id="path1134"
       d="m 390.34677,772.75155 c 1.47102,-1.68933 3.48324,-2.74013 5.35675,-3.90697 1.6806,2.67737 3.72625,5.09454 5.55969,7.66917 -3.42821,0.43678 -6.85621,0.86773 -10.26114,1.4497 -0.23161,-1.71964 -1.23255,-3.49274 -0.6553,-5.2119 z"
       style="fill:none;stroke:#ffffff;stroke-width:0.125;stroke-linecap:butt;stroke-linejoin:miter;stroke-miterlimit:10" />
    <path
       inkscape:connector-curvature="0"
       id="path1136"
       d="m 390.34677,772.75155 c 1.47102,-1.68933 3.48324,-2.74013 5.35675,-3.90697 1.6806,2.67737 3.72625,5.09454 5.55969,7.66917 -3.42821,0.43678 -6.85621,0.86773 -10.26114,1.4497 -0.23161,-1.71964 -1.23255,-3.49274 -0.6553,-5.2119 z"
       style="fill:#ffffff;fill-rule:nonzero;stroke:none" />
    <path
       inkscape:connector-curvature="0"
       id="path1154"
       d="m 404.01296,772.55001 c 1.21051,-1.63984 4.65424,0.0275 3.16915,1.93425 -1.21664,1.65529 -4.66327,-0.0259 -3.16915,-1.93425 z"
       style="fill:none;stroke:#c7c7c7;stroke-width:0.125;stroke-linecap:butt;stroke-linejoin:miter;stroke-miterlimit:10" />
    <path
       inkscape:connector-curvature="0"
       id="path1156"
       d="m 404.01296,772.55001 c 1.21051,-1.63984 4.65424,0.0275 3.16915,1.93425 -1.21664,1.65529 -4.66327,-0.0259 -3.16915,-1.93425 z"
       style="fill:#c7c7c7;fill-rule:nonzero;stroke:none" />
    <path
       inkscape:connector-curvature="0"
       id="path1170"
       d="m 410.43344,773.42498 c 2.30648,1.45035 4.85622,1.31354 7.3797,0.58927 -0.0605,1.75175 -0.13845,3.50696 -0.23797,5.26582 -2.10965,-0.2865 -4.23798,-0.2949 -6.33042,0.1025 -0.25738,-1.9921 -0.53564,-3.97817 -0.81131,-5.95765 z"
       style="fill:none;stroke:#ffffff;stroke-width:0.125;stroke-linecap:butt;stroke-linejoin:miter;stroke-miterlimit:10" />
    <path
       inkscape:connector-curvature="0"
       id="path1172"
       d="m 410.43344,773.42498 c 2.30648,1.45035 4.85622,1.31354 7.3797,0.58927 -0.0605,1.75175 -0.13845,3.50696 -0.23797,5.26582 -2.10965,-0.2865 -4.23798,-0.2949 -6.33042,0.1025 -0.25738,-1.9921 -0.53564,-3.97817 -0.81131,-5.95765 z"
       style="fill:#ffffff;fill-rule:nonzero;stroke:none" />
    <path
       inkscape:connector-curvature="0"
       id="path1198"
       d="m 420.20347,776.48495 c 4.13795,0.2295 -1.89417,3.80592 0,0 z"
       style="fill:none;stroke:#ffffff;stroke-width:0.125;stroke-linecap:butt;stroke-linejoin:miter;stroke-miterlimit:10" />
    <path
       inkscape:connector-curvature="0"
       id="path1200"
       d="m 420.20347,776.48495 c 4.13795,0.2295 -1.89417,3.80592 0,0 z"
       style="fill:#ffffff;fill-rule:nonzero;stroke:none" />
    <path
       inkscape:connector-curvature="0"
       id="path1222"
       d="m 391.20994,779.99415 c 2.91637,-1.65195 6.39936,-2.14409 9.66367,-1.36367 3.24166,3.39354 -0.43104,6.8322 -2.40856,9.64345 1.90386,-1.18643 3.75016,-2.46452 5.6987,-3.57868 -0.20458,3.8146 -3.10288,6.69618 -4.11033,10.28781 2.96807,-2.24714 3.87459,-6.13651 6.58497,-8.62453 -0.15825,3.24147 -2.43414,6.61915 -0.71187,9.76592 0.90534,2.0522 1.73245,4.2109 3.19239,5.95612 1.29685,0.44531 2.68375,0.68294 3.8847,1.39848 -0.41832,2.10813 -0.61712,4.24977 -0.76354,6.39933 1.05554,-1.05256 2.08762,-2.14181 3.36072,-2.93495 -0.29473,4.23325 -0.1245,8.50899 1.44966,12.50733 -1.39388,0.59256 -2.77851,1.2047 -4.16546,1.80956 -0.70742,-5.89295 -0.57917,-11.97829 -1.89362,-17.72989 -4.04521,-0.40037 -7.78266,2.72423 -11.97032,2.00685 -3.83225,-0.0498 -5.62814,-4.12298 -6.17764,-7.35325 -0.58941,-6.05888 -1.59522,-12.09295 -1.63347,-18.18988 z"
       style="fill:none;stroke:#ffffff;stroke-width:0.125;stroke-linecap:butt;stroke-linejoin:miter;stroke-miterlimit:10" />
    <path
       inkscape:connector-curvature="0"
       id="path1224"
       d="m 391.20994,779.99415 c 2.91637,-1.65195 6.39936,-2.14409 9.66367,-1.36367 3.24166,3.39354 -0.43104,6.8322 -2.40856,9.64345 1.90386,-1.18643 3.75016,-2.46452 5.6987,-3.57868 -0.20458,3.8146 -3.10288,6.69618 -4.11033,10.28781 2.96807,-2.24714 3.87459,-6.13651 6.58497,-8.62453 -0.15825,3.24147 -2.43414,6.61915 -0.71187,9.76592 0.90534,2.0522 1.73245,4.2109 3.19239,5.95612 1.29685,0.44531 2.68375,0.68294 3.8847,1.39848 -0.41832,2.10813 -0.61712,4.24977 -0.76354,6.39933 1.05554,-1.05256 2.08762,-2.14181 3.36072,-2.93495 -0.29473,4.23325 -0.1245,8.50899 1.44966,12.50733 -1.39388,0.59256 -2.77851,1.2047 -4.16546,1.80956 -0.70742,-5.89295 -0.57917,-11.97829 -1.89362,-17.72989 -4.04521,-0.40037 -7.78266,2.72423 -11.97032,2.00685 -3.83225,-0.0498 -5.62814,-4.12298 -6.17764,-7.35325 -0.58941,-6.05888 -1.59522,-12.09295 -1.63347,-18.18988 z"
       style="fill:#ffffff;fill-rule:nonzero;stroke:none" />
    <path
       inkscape:connector-curvature="0"
       id="path1234"
       d="m 407.49794,780.19813 c 2.28873,-0.75502 3.09871,3.0712 0.77268,3.44417 -2.67761,1.0182 -3.55133,-3.15713 -0.77268,-3.44417 z"
       style="fill:none;stroke:#ffffff;stroke-width:0.125;stroke-linecap:butt;stroke-linejoin:miter;stroke-miterlimit:10" />
    <path
       inkscape:connector-curvature="0"
       id="path1236"
       d="m 407.49794,780.19813 c 2.28873,-0.75502 3.09871,3.0712 0.77268,3.44417 -2.67761,1.0182 -3.55133,-3.15713 -0.77268,-3.44417 z"
       style="fill:#ffffff;fill-rule:nonzero;stroke:none" />
    <path
       inkscape:connector-curvature="0"
       id="path1246"
       d="m 412.7645,781.53587 c 1.15055,-1.70414 4.66654,-0.1692 3.12391,1.78545 -1.17007,1.6577 -4.77547,0.17966 -3.12391,-1.78545 z"
       style="fill:none;stroke:#ffffff;stroke-width:0.125;stroke-linecap:butt;stroke-linejoin:miter;stroke-miterlimit:10" />
    <path
       inkscape:connector-curvature="0"
       id="path1248"
       d="m 412.7645,781.53587 c 1.15055,-1.70414 4.66654,-0.1692 3.12391,1.78545 -1.17007,1.6577 -4.77547,0.17966 -3.12391,-1.78545 z"
       style="fill:#ffffff;fill-rule:nonzero;stroke:none" />
    <path
       inkscape:connector-curvature="0"
       id="path1338"
       d="m 409.63742,822.79677 c -2.38126,-5.38942 -2.89768,-11.9098 0.22362,-17.1218 0.69695,5.73946 -1.34273,11.39889 -0.22362,17.1218 z"
       style="fill:none;stroke:#ffffff;stroke-width:0.125;stroke-linecap:butt;stroke-linejoin:miter;stroke-miterlimit:10" />
    <path
       inkscape:connector-curvature="0"
       id="path1340"
       d="m 409.63742,822.79677 c -2.38126,-5.38942 -2.89768,-11.9098 0.22362,-17.1218 0.69695,5.73946 -1.34273,11.39889 -0.22362,17.1218 z"
       style="fill:#ffffff;fill-rule:nonzero;stroke:none" />
    <path
       inkscape:connector-curvature="0"
       id="path1346"
       d="m 396.15895,807.21113 c 3.03187,2.89534 6.97737,2.25169 10.59855,0.99352 -0.27231,4.45847 -0.63331,8.91381 -0.76458,13.38475 -3.17282,-0.92027 -6.34363,-1.88473 -9.33838,-3.28667 -0.25757,-3.69512 -0.46039,-7.39273 -0.49559,-11.0916 z"
       style="fill:none;stroke:#ffffff;stroke-width:0.125;stroke-linecap:butt;stroke-linejoin:miter;stroke-miterlimit:10" />
    <path
       inkscape:connector-curvature="0"
       id="path1348"
       d="m 396.15895,807.21113 c 3.03187,2.89534 6.97737,2.25169 10.59855,0.99352 -0.27231,4.45847 -0.63331,8.91381 -0.76458,13.38475 -3.17282,-0.92027 -6.34363,-1.88473 -9.33838,-3.28667 -0.25757,-3.69512 -0.46039,-7.39273 -0.49559,-11.0916 z"
       style="fill:#ffffff;fill-rule:nonzero;stroke:none" />
  </g>
</svg>
